<svg width="20" height="20" viewBox="0 0 20 20" fill="none" xmlns="http://www.w3.org/2000/svg">
<g clip-path="url(#clip0_5_207)">
<path d="M2.74532 9.79378C2.30938 9.16721 2.13438 8.57659 2.56094 8.21878C2.92188 7.91565 3.45313 7.85784 4.10938 8.61565C4.10938 8.61565 6.07032 10.8938 6.74532 11.5266C6.89844 11.6688 7.08907 11.6907 7.26251 11.511C7.40938 11.3578 7.35626 11.225 7.23126 11.0422C7.23126 11.0422 4.46719 6.93284 4.10469 6.43128C3.50001 5.59221 3.73282 5.05003 4.0125 4.79221C4.40157 4.43128 5.08594 4.3594 5.72188 5.23128L9.06876 9.71097C9.17032 9.81878 9.33438 9.8344 9.45469 9.75003C9.47032 9.73909 9.48594 9.72815 9.50157 9.71721C9.62501 9.62971 9.66094 9.46253 9.58594 9.33128C9.00001 8.31096 6.66876 4.24534 6.32657 3.50471C5.93282 2.65003 6.10157 2.21565 6.51876 1.96409C7.01407 1.66565 7.47969 1.68753 8.03594 2.51409C8.63907 3.41409 10.9813 7.20315 11.5766 8.2219C11.6547 8.35471 11.8219 8.40471 11.9594 8.33753C11.9609 8.33596 11.9641 8.33596 11.9656 8.3344C12.0969 8.27034 12.2156 8.14065 12.1609 7.95628C11.8359 6.8844 10.2406 3.5469 9.90626 2.77972C9.44844 1.73128 9.67188 1.37503 10.1453 1.1344C10.6422 0.88284 11.1594 1.08128 11.5109 1.78128C11.7484 2.25628 15.9188 9.84534 15.9188 9.84534C15.8578 8.71409 16.1438 7.91253 16.3875 7.10784C16.8313 5.64378 17.9047 4.88284 18.6828 5.22503C19.0875 5.40315 19.1609 5.75784 19.1172 6.02972C19.0297 6.55784 18.6578 8.19378 18.5859 9.47503C18.4172 12.4782 19.325 15.9391 15.9422 18.1141C13.6781 19.5703 11.2516 19.3141 9.64844 18.1938C7.70469 16.836 3.10157 10.3063 2.74532 9.79378Z" fill="#FFCA28"/>
<path d="M18.3875 8.08906C18.1047 9.27812 18.0672 10.7375 18.0766 11.3594C18.1141 13.7828 18.1016 15.8797 15.6719 17.7953C15.3734 18.0312 14.4375 18.6062 13.3484 18.9062C12.9984 19.0016 13.1313 19.1141 13.3469 19.0891C14.5359 18.9516 15.4375 18.4391 15.9391 18.1156C19.3203 15.9406 18.4891 12.5031 18.6578 9.5C18.7297 8.21875 19.1203 6.20312 19.1141 6.02968C19.1063 5.85625 18.6703 6.9 18.3875 8.08906Z" fill="#EDA600"/>
<path d="M12.1141 8.21412C12.1141 8.21412 11.8719 8.21568 11.6422 7.89537C10.9531 6.93755 8.79219 3.32037 8.17031 2.43287C7.46094 1.42037 6.8 1.80787 6.65 1.88912C6.65 1.88912 7.19375 1.90787 7.49375 2.35318C8.10625 3.26099 10.4281 7.32974 11.1609 8.20318C11.6344 8.76724 12.1141 8.21412 12.1141 8.21412Z" fill="#EDA600"/>
<path d="M3.54844 8.52193C3.76094 8.75006 5.62657 10.9641 6.31407 11.5813C6.90469 12.111 7.34532 11.436 7.34532 11.436C7.34532 11.436 7.12813 11.4657 6.83126 11.2422C6.09376 10.6844 4.34688 8.69537 3.95313 8.27662C3.36876 7.65474 2.82501 8.04381 2.70938 8.11412C2.71094 8.11412 3.04532 7.98443 3.54844 8.52193Z" fill="#EDA600"/>
<path d="M9.62344 9.57185C9.62344 9.57185 9.42344 9.71716 9.05625 9.28748C8.78907 8.97341 5.72188 5.23123 5.72188 5.23123C4.95313 4.29216 4.34844 4.57185 4.22344 4.64373C4.22344 4.64373 4.60938 4.62341 5.06094 5.14373C5.26719 5.38123 8.54063 9.55466 8.67188 9.69685C9.15157 10.2203 9.59532 9.77029 9.62344 9.57185Z" fill="#EDA600"/>
<path d="M15.9063 9.03595C15.9063 9.03595 11.8422 2.22189 11.5828 1.75782C11.0063 0.728136 10.3359 1.04376 10.2219 1.09532C10.2219 1.09532 10.5953 0.989074 11.0344 1.73595C11.2688 2.13282 14.2547 7.50157 15.2078 9.2172C15.2828 9.53751 15.2766 9.9547 15.0359 10.2234C14.1734 11.1906 13.0734 12.1781 13.3969 14.6266C13.4781 15.2469 13.7078 15.8344 13.8781 16.1172C14.0938 16.4719 14.3422 16.3375 14.2328 16.0719C14.1594 15.8922 14.0422 15.4688 14.0188 15.2875C13.9094 14.4438 13.5406 12.9688 15.1938 11.2C15.4734 10.9047 16.1844 10.0125 15.9063 9.03595Z" fill="#EDA600"/>
<path d="M16.1703 4.83745C15.9531 4.06713 15.6156 3.36088 15.1781 2.74838C14.7844 2.19682 14.3078 1.72182 13.7641 1.34057C13.6953 1.29213 13.6078 1.14213 13.6828 0.996821C13.7578 0.851509 13.9203 0.870259 13.9813 0.895259C14.6609 1.17495 15.2172 1.65776 15.6766 2.32026C16.2219 3.10776 16.4922 3.84995 16.6313 4.67963C16.6469 4.77026 16.6438 4.96088 16.45 5.01088C16.2578 5.06088 16.1922 4.91245 16.1703 4.83745Z" fill="#B0BEC5"/>
<path d="M15.1078 5.66401C14.8906 4.8937 14.5531 4.18745 14.1156 3.57495C13.7219 3.02339 13.2453 2.54839 12.7016 2.16714C12.6328 2.1187 12.5453 1.9687 12.6203 1.82339C12.6953 1.67651 12.8578 1.69682 12.9188 1.72182C13.5984 2.00151 14.1547 2.48432 14.6141 3.14682C15.1594 3.93432 15.4297 4.67651 15.5688 5.5062C15.5844 5.59682 15.5813 5.78745 15.3875 5.83745C15.1969 5.88745 15.1297 5.74057 15.1078 5.66401Z" fill="#B0BEC5"/>
<path d="M1.3375 12.103C1.60625 12.8577 1.98906 13.539 2.46562 14.1218C2.89531 14.6452 3.40156 15.089 3.96875 15.4343C4.04062 15.478 4.1375 15.6218 4.07187 15.7718C4.00625 15.9234 3.84375 15.914 3.77969 15.8937C3.08281 15.6593 2.49531 15.214 1.99375 14.5827C1.39844 13.8327 1.07812 13.1109 0.884374 12.2921C0.862499 12.2015 0.853124 12.0124 1.04375 11.9499C1.23437 11.8874 1.31094 12.0296 1.3375 12.103Z" fill="#B0BEC5"/>
<path d="M2.34219 11.2077C2.61094 11.9624 2.99375 12.6437 3.47032 13.2265C3.9 13.7499 4.40625 14.1937 4.97344 14.539C5.04532 14.5827 5.14219 14.7265 5.07657 14.8765C5.01094 15.028 4.84844 15.0187 4.78438 14.9984C4.0875 14.764 3.5 14.3187 2.99844 13.6874C2.40313 12.9374 2.08282 12.2155 1.88907 11.3968C1.86719 11.3062 1.85782 11.1171 2.04844 11.0546C2.23907 10.9905 2.31563 11.1343 2.34219 11.2077Z" fill="#B0BEC5"/>
</g>
<defs>
<clipPath id="clip0_5_207">
<rect width="20" height="20" fill="white"/>
</clipPath>
</defs>
</svg>
